<svg width="53" height="53" viewBox="0 0 53 53" fill="none" xmlns="http://www.w3.org/2000/svg">
<rect x="0.21106" y="0.430664" width="52.7291" height="52.0086" rx="26.0043" fill="#230B34"/>
<path d="M20.6385 23.3178C20.7643 22.4458 21.0074 21.6829 21.368 21.0289C21.7285 20.3665 22.177 19.8174 22.7136 19.3814C23.2586 18.937 23.879 18.6058 24.5749 18.3878C25.2792 18.1615 26.0338 18.0483 26.8387 18.0483C27.6771 18.0483 28.4317 18.1699 29.1024 18.413C29.7816 18.6478 30.3601 18.9789 30.838 19.4065C31.3159 19.8257 31.6806 20.3204 31.9321 20.8905C32.192 21.4607 32.322 22.0769 32.322 22.7393C32.322 23.3178 32.2549 23.8292 32.1208 24.2736C31.995 24.7096 31.8105 25.0911 31.5674 25.418C31.3243 25.745 31.0224 26.0217 30.6619 26.2481C30.3014 26.4745 29.8947 26.6631 29.442 26.814C30.5319 27.1578 31.3452 27.6818 31.8818 28.3861C32.4184 29.0903 32.6867 29.9749 32.6867 31.0397C32.6867 31.9452 32.519 32.7459 32.1836 33.4418C31.8483 34.1377 31.3955 34.7246 30.8254 35.2025C30.2553 35.672 29.5929 36.0283 28.8383 36.2714C28.0921 36.5146 27.2998 36.6362 26.4614 36.6362C25.5475 36.6362 24.751 36.5314 24.0719 36.3217C23.3928 36.1121 22.8017 35.8019 22.2986 35.3911C21.7956 34.9803 21.368 34.4772 21.0158 33.8819C20.6637 33.2867 20.3619 32.5991 20.1103 31.8194L21.4812 31.2535C21.8417 31.1026 22.177 31.0648 22.4873 31.1403C22.8059 31.2074 23.0364 31.375 23.179 31.6433C23.3299 31.9368 23.4934 32.226 23.6694 32.5111C23.8539 32.7962 24.0719 33.0519 24.3234 33.2783C24.5749 33.4963 24.8684 33.6765 25.2038 33.8191C25.5475 33.9532 25.9541 34.0203 26.4237 34.0203C26.9519 34.0203 27.413 33.9364 27.8071 33.7687C28.2011 33.5927 28.5281 33.3663 28.788 33.0896C29.0563 32.8129 29.2533 32.5069 29.3791 32.1715C29.5133 31.8278 29.5803 31.484 29.5803 31.1403C29.5803 30.7043 29.5342 30.3102 29.442 29.9581C29.3498 29.5976 29.1569 29.2916 28.8635 29.04C28.57 28.7885 28.1466 28.5915 27.5933 28.4489C27.0483 28.3064 26.3147 28.2351 25.3924 28.2351V26.0217C26.1554 26.0133 26.7884 25.9421 27.2914 25.8079C27.7945 25.6738 28.1927 25.4893 28.4862 25.2545C28.788 25.0114 28.9976 24.7221 29.115 24.3868C29.2324 24.0514 29.2911 23.6825 29.2911 23.2801C29.2911 22.4249 29.0521 21.7751 28.5742 21.3307C28.0963 20.8864 27.4591 20.6642 26.6626 20.6642C26.2937 20.6642 25.9541 20.7187 25.6439 20.8277C25.3337 20.9283 25.0528 21.075 24.8013 21.2678C24.5582 21.4523 24.3528 21.6703 24.1851 21.9218C24.0174 22.1733 23.8916 22.45 23.8078 22.7518C23.6652 23.1375 23.4766 23.3932 23.2418 23.519C23.0155 23.6448 22.6927 23.6741 22.2735 23.607L20.6385 23.3178Z" fill="#F8F8FA"/>
</svg>
