<svg width="258" height="262" viewBox="0 0 258 262" fill="none" xmlns="http://www.w3.org/2000/svg">
<g filter="url(#filter0_dii_1960_712)">
<rect x="93.4503" y="7" width="155.18" height="135.77" rx="67.8849" fill="#F4F6F9"/>
</g>
<g filter="url(#filter1_d_1960_712)">
<rect x="50" y="55.8771" width="155.18" height="135.77" rx="67.8849" fill="white"/>
</g>
<path d="M98.4935 113.579H123.71L125.65 116.974H100.433L98.4935 113.579ZM101.08 120.368H126.297L128.236 123.762H103.02L101.08 120.368ZM143.108 138.47C145.254 138.47 146.987 136.954 146.987 135.076C146.987 133.198 145.254 131.682 143.108 131.682C140.961 131.682 139.228 133.198 139.228 135.076C139.228 136.954 140.961 138.47 143.108 138.47ZM146.987 118.105H140.521V123.762H152.056L146.987 118.105ZM117.244 138.47C119.391 138.47 121.124 136.954 121.124 135.076C121.124 133.198 119.391 131.682 117.244 131.682C115.098 131.682 113.365 133.198 113.365 135.076C113.365 136.954 115.098 138.47 117.244 138.47ZM148.28 114.711L156.039 123.762V135.076H150.867C150.867 138.832 147.401 141.865 143.108 141.865C138.814 141.865 135.349 138.832 135.349 135.076H125.003C125.003 138.832 121.512 141.865 117.244 141.865C112.951 141.865 109.485 138.832 109.485 135.076H104.313V127.156H109.485V130.55H111.451C112.874 129.17 114.943 128.288 117.244 128.288C119.546 128.288 121.615 129.17 123.038 130.55H135.349V110.185H104.313C104.313 107.673 106.615 105.659 109.485 105.659H140.521V114.711H148.28Z" fill="#DE6600"/>
<defs>
<filter id="filter0_dii_1960_712" x="86.4503" y="0" width="171.18" height="151.77" filterUnits="userSpaceOnUse" color-interpolation-filters="sRGB">
<feFlood flood-opacity="0" result="BackgroundImageFix"/>
<feColorMatrix in="SourceAlpha" type="matrix" values="0 0 0 0 0 0 0 0 0 0 0 0 0 0 0 0 0 0 127 0" result="hardAlpha"/>
<feOffset dx="1" dy="1"/>
<feGaussianBlur stdDeviation="4"/>
<feColorMatrix type="matrix" values="0 0 0 0 0.956863 0 0 0 0 0.964706 0 0 0 0 0.976471 0 0 0 1 0"/>
<feBlend mode="normal" in2="BackgroundImageFix" result="effect1_dropShadow_1960_712"/>
<feBlend mode="normal" in="SourceGraphic" in2="effect1_dropShadow_1960_712" result="shape"/>
<feColorMatrix in="SourceAlpha" type="matrix" values="0 0 0 0 0 0 0 0 0 0 0 0 0 0 0 0 0 0 127 0" result="hardAlpha"/>
<feOffset dx="4" dy="4"/>
<feGaussianBlur stdDeviation="5"/>
<feComposite in2="hardAlpha" operator="arithmetic" k2="-1" k3="1"/>
<feColorMatrix type="matrix" values="0 0 0 0 0.847 0 0 0 0 0.847 0 0 0 0 0.847 0 0 0 1 0"/>
<feBlend mode="normal" in2="shape" result="effect2_innerShadow_1960_712"/>
<feColorMatrix in="SourceAlpha" type="matrix" values="0 0 0 0 0 0 0 0 0 0 0 0 0 0 0 0 0 0 127 0" result="hardAlpha"/>
<feOffset dx="-6" dy="-5"/>
<feGaussianBlur stdDeviation="6"/>
<feComposite in2="hardAlpha" operator="arithmetic" k2="-1" k3="1"/>
<feColorMatrix type="matrix" values="0 0 0 0 0.980392 0 0 0 0 0.984314 0 0 0 0 0.988235 0 0 0 1 0"/>
<feBlend mode="normal" in2="effect2_innerShadow_1960_712" result="effect3_innerShadow_1960_712"/>
</filter>
<filter id="filter1_d_1960_712" x="0" y="25.8771" width="255.18" height="235.77" filterUnits="userSpaceOnUse" color-interpolation-filters="sRGB">
<feFlood flood-opacity="0" result="BackgroundImageFix"/>
<feColorMatrix in="SourceAlpha" type="matrix" values="0 0 0 0 0 0 0 0 0 0 0 0 0 0 0 0 0 0 127 0" result="hardAlpha"/>
<feOffset dy="20"/>
<feGaussianBlur stdDeviation="25"/>
<feComposite in2="hardAlpha" operator="out"/>
<feColorMatrix type="matrix" values="0 0 0 0 0.592 0 0 0 0 0.592 0 0 0 0 0.592 0 0 0 0.15 0"/>
<feBlend mode="normal" in2="BackgroundImageFix" result="effect1_dropShadow_1960_712"/>
<feBlend mode="normal" in="SourceGraphic" in2="effect1_dropShadow_1960_712" result="shape"/>
</filter>
</defs>
</svg>
