<svg width="207" height="214" viewBox="0 0 207 214" fill="none" xmlns="http://www.w3.org/2000/svg">
<g clip-path="url(#clip0_3169_2191)">
<path d="M142.312 80.25C142.312 90.8918 138.223 101.098 130.945 108.623C123.666 116.148 113.794 120.375 103.5 120.375C93.2063 120.375 83.3342 116.148 76.0554 108.623C68.7767 101.098 64.6875 90.8918 64.6875 80.25C64.6875 69.6082 68.7767 59.4022 76.0554 51.8773C83.3342 44.3524 93.2063 40.125 103.5 40.125C113.794 40.125 123.666 44.3524 130.945 51.8773C138.223 59.4022 142.312 69.6082 142.312 80.25Z" fill="black"/>
<path d="M25.875 0C19.0125 0 12.4311 2.8183 7.57861 7.83489C2.72611 12.8515 0 19.6555 0 26.75L0 187.25C0 194.345 2.72611 201.148 7.57861 206.165C12.4311 211.182 19.0125 214 25.875 214H181.125C187.987 214 194.569 211.182 199.421 206.165C204.274 201.148 207 194.345 207 187.25V26.75C207 19.6555 204.274 12.8515 199.421 7.83489C194.569 2.8183 187.987 0 181.125 0L25.875 0ZM181.125 13.375C184.556 13.375 187.847 14.7841 190.273 17.2924C192.699 19.8007 194.062 23.2027 194.062 26.75V187.25C194.062 190.797 192.699 194.199 190.273 196.708C187.847 199.216 184.556 200.625 181.125 200.625V187.25C181.125 173.875 168.188 133.75 103.5 133.75C38.8125 133.75 25.875 173.875 25.875 187.25V200.625C22.4438 200.625 19.1531 199.216 16.7268 196.708C14.3006 194.199 12.9375 190.797 12.9375 187.25V26.75C12.9375 23.2027 14.3006 19.8007 16.7268 17.2924C19.1531 14.7841 22.4438 13.375 25.875 13.375H181.125Z" fill="black"/>
</g>
<defs>
<clipPath id="clip0_3169_2191">
<rect width="207" height="214" fill="white"/>
</clipPath>
</defs>
</svg>
