<svg width="53" height="53" viewBox="0 0 53 53" fill="none" xmlns="http://www.w3.org/2000/svg">
<rect x="0.219971" y="0.49939" width="52.7291" height="52.0086" rx="26.0043" fill="#230B34"/>
<path d="M31.6266 33.6112C31.962 33.6112 32.2261 33.7076 32.4189 33.9005C32.6201 34.0849 32.7208 34.3323 32.7208 34.6425V36.5038H20.245V35.4725C20.245 35.2629 20.2869 35.0449 20.3708 34.8186C20.463 34.5838 20.6055 34.3742 20.7984 34.1897L26.3194 28.6561C26.7805 28.1866 27.1913 27.7381 27.5519 27.3105C27.9208 26.8829 28.2268 26.4595 28.4699 26.0402C28.7131 25.621 28.8975 25.1976 29.0233 24.77C29.1575 24.3341 29.2245 23.8771 29.2245 23.3992C29.2245 22.9632 29.1616 22.5817 29.0359 22.2548C28.9101 21.9194 28.7299 21.6385 28.4951 21.4121C28.2687 21.1858 27.992 21.0181 27.6651 20.9091C27.3465 20.7917 26.9859 20.733 26.5835 20.733C26.2146 20.733 25.8708 20.7875 25.5522 20.8965C25.242 20.9971 24.9653 21.1438 24.7222 21.3367C24.479 21.5211 24.2736 21.7391 24.1059 21.9907C23.9383 22.2422 23.8125 22.5189 23.7287 22.8207C23.5861 23.2064 23.4017 23.4621 23.1753 23.5879C22.9489 23.7136 22.6219 23.743 22.1943 23.6759L20.5594 23.3866C20.6852 22.5147 20.9283 21.7517 21.2888 21.0977C21.6494 20.4354 22.0979 19.8862 22.6345 19.4502C23.1795 19.0059 23.7999 18.6747 24.4958 18.4567C25.2001 18.2303 25.9547 18.1171 26.7596 18.1171C27.598 18.1171 28.3651 18.2429 29.061 18.4944C29.7569 18.7376 30.3522 19.0855 30.8469 19.5383C31.3415 19.991 31.7272 20.536 32.0039 21.1732C32.2806 21.8104 32.4189 22.5189 32.4189 23.2986C32.4189 23.9693 32.3183 24.5898 32.1171 25.1599C31.9243 25.73 31.6602 26.275 31.3248 26.7948C30.9978 27.3147 30.6121 27.8177 30.1678 28.304C29.7234 28.7903 29.2581 29.2849 28.7718 29.788L24.6719 33.9759C25.0659 33.8586 25.4558 33.7705 25.8415 33.7118C26.2355 33.6448 26.6086 33.6112 26.9608 33.6112H31.6266Z" fill="#F8F8FA"/>
</svg>
