<svg width="652" height="180" viewBox="0 0 652 180" fill="none" xmlns="http://www.w3.org/2000/svg">
<path d="M0.738281 179.904L2.03252 173.993L6.50428 178.069L0.738281 179.904ZM295.646 134.371L295.877 133.9L295.646 134.371ZM649.13 0.896027L651.871 6.2906L645.829 5.96674L649.13 0.896027ZM3.53383 176.059C3.67268 175.912 3.81229 175.764 3.95267 175.616L4.71306 176.337C4.57363 176.484 4.43495 176.631 4.29705 176.778L3.53383 176.059ZM11.5422 168.108C14.0518 165.769 16.7319 163.4 19.5768 161.019L20.2494 161.823C17.4185 164.192 14.7524 166.549 12.2566 168.874L11.5422 168.108ZM27.9419 154.361C30.7168 152.258 33.6161 150.162 36.6361 148.084L37.2301 148.948C34.2233 151.016 31.337 153.103 28.5748 155.196L27.9419 154.361ZM45.5604 142.23C48.5271 140.376 51.5916 138.548 54.7512 136.757L55.268 137.669C52.1216 139.452 49.07 141.272 46.1159 143.119L45.5604 142.23ZM64.1787 131.677C67.309 130.075 70.5204 128.515 73.8105 127.004L74.2478 127.957C70.9714 129.461 67.7734 131.015 64.6561 132.61L64.1787 131.677ZM83.6123 122.754C86.871 121.423 90.1983 120.144 93.5923 118.924L93.9467 119.91C90.567 121.125 87.2537 122.399 84.0086 123.724L83.6123 122.754ZM103.731 115.525C107.099 114.477 110.525 113.489 114.009 112.569L114.277 113.582C110.808 114.499 107.396 115.482 104.043 116.526L103.731 115.525ZM124.408 110.063C127.856 109.312 131.356 108.628 134.906 108.018L135.084 109.051C131.549 109.659 128.065 110.339 124.631 111.087L124.408 110.063ZM145.484 106.438C148.986 105.995 152.533 105.623 156.122 105.33L156.207 106.374C152.634 106.667 149.103 107.036 145.616 107.478L145.484 106.438ZM166.798 104.694C170.324 104.562 173.889 104.506 177.491 104.53L177.484 105.578C173.897 105.554 170.348 105.61 166.837 105.741L166.798 104.694ZM188.181 104.837C191.705 105.015 195.262 105.271 198.851 105.609L198.752 106.652C195.179 106.316 191.637 106.061 188.128 105.884L188.181 104.837ZM209.481 106.839C212.978 107.319 216.504 107.878 220.057 108.518L219.871 109.549C216.332 108.912 212.821 108.355 209.338 107.877L209.481 106.839ZM230.543 110.631C233.976 111.396 237.432 112.237 240.911 113.159L240.643 114.172C237.177 113.254 233.734 112.415 230.316 111.654L230.543 110.631ZM251.179 116.093C254.545 117.126 257.933 118.234 261.34 119.42L260.995 120.41C257.6 119.228 254.226 118.124 250.871 117.095L251.179 116.093ZM271.392 123.127C274.675 124.406 277.975 125.757 281.292 127.185L280.878 128.147C277.572 126.725 274.283 125.378 271.012 124.104L271.392 123.127ZM291.007 131.56C292.626 132.322 294.25 133.102 295.877 133.9L295.415 134.841C293.793 134.045 292.175 133.268 290.561 132.508L291.007 131.56ZM295.877 133.9C297.474 134.684 299.07 135.453 300.665 136.206L300.218 137.154C298.617 136.398 297.017 135.627 295.415 134.841L295.877 133.9ZM310.229 140.55C313.48 141.967 316.726 143.323 319.968 144.618L319.579 145.591C316.327 144.292 313.071 142.932 309.811 141.51L310.229 140.55ZM329.757 148.353C333.092 149.566 336.421 150.716 339.743 151.803L339.417 152.799C336.084 151.708 332.744 150.555 329.399 149.338L329.757 148.353ZM349.788 154.911C353.175 155.898 356.554 156.821 359.922 157.682L359.663 158.697C356.283 157.834 352.893 156.908 349.495 155.917L349.788 154.911ZM370.187 160.118C373.631 160.873 377.062 161.563 380.481 162.19L380.292 163.22C376.862 162.592 373.418 161.899 369.963 161.142L370.187 160.118ZM390.869 163.904C394.368 164.418 397.852 164.866 401.319 165.248L401.204 166.29C397.724 165.906 394.228 165.457 390.716 164.941L390.869 163.904ZM411.775 166.211C415.299 166.47 418.804 166.663 422.288 166.79L422.25 167.838C418.752 167.71 415.234 167.516 411.698 167.256L411.775 166.211ZM432.821 166.978C436.346 166.974 439.848 166.903 443.326 166.768L443.366 167.815C439.876 167.951 436.36 168.022 432.822 168.026L432.821 166.978ZM453.823 166.155C457.347 165.881 460.844 165.54 464.312 165.133L464.434 166.174C460.953 166.582 457.442 166.925 453.904 167.2L453.823 166.155ZM474.731 163.701C478.21 163.152 481.656 162.537 485.067 161.857L485.272 162.885C481.847 163.567 478.387 164.185 474.894 164.736L474.731 163.701ZM495.355 159.588C498.787 158.757 502.181 157.86 505.535 156.898L505.823 157.906C502.456 158.871 499.048 159.772 495.602 160.607L495.355 159.588ZM515.579 153.789C518.921 152.676 522.219 151.499 525.47 150.259L525.844 151.238C522.579 152.483 519.267 153.666 515.91 154.783L515.579 153.789ZM535.222 146.293C538.464 144.891 541.654 143.425 544.79 141.899L545.249 142.841C542.099 144.375 538.895 145.847 535.638 147.255L535.222 146.293ZM554.139 137.079C557.235 135.391 560.272 133.642 563.247 131.835L563.791 132.73C560.802 134.547 557.751 136.304 554.641 137.999L554.139 137.079ZM572.088 126.166C575.014 124.188 577.871 122.151 580.657 120.058L581.287 120.896C578.486 123 575.615 125.047 572.675 127.034L572.088 126.166ZM588.906 113.523C591.615 111.26 594.245 108.941 596.795 106.569L597.509 107.336C594.946 109.721 592.301 112.053 589.578 114.327L588.906 113.523ZM604.292 99.1996C606.736 96.6588 609.092 94.0652 611.357 91.4222L612.152 92.1041C609.875 94.7626 607.505 97.3711 605.047 99.9262L604.292 99.1996ZM617.951 83.2456C620.078 80.4382 622.106 77.5826 624.03 74.6822L624.904 75.2617C622.967 78.1806 620.926 81.054 618.786 83.8786L617.951 83.2456ZM629.552 65.7462C631.304 62.6915 632.944 59.5938 634.469 56.457L635.411 56.9152C633.876 60.0737 632.224 63.1925 630.461 66.2675L629.552 65.7462ZM638.727 46.8528C640.035 43.5936 641.221 40.2981 642.28 36.9702L643.279 37.2882C642.212 40.6409 641.017 43.9605 639.699 47.2432L638.727 46.8528ZM645.086 26.8533C645.893 23.4473 646.567 20.0126 647.107 16.5534L648.143 16.7149C647.599 20.2013 646.919 23.6626 646.106 27.0947L645.086 26.8533ZM648.314 6.12868C648.328 5.94194 648.342 5.75514 648.355 5.56828L649.401 5.64304C649.387 5.83138 649.373 6.01965 649.359 6.20787L648.314 6.12868Z" fill="#DE6600"/>
</svg>
