<svg width="55" height="55" viewBox="0 0 55 55" fill="none" xmlns="http://www.w3.org/2000/svg">
<path d="M16.5049 16.5049C16.6646 16.3449 16.8543 16.2179 17.0631 16.1312C17.2719 16.0446 17.4957 16 17.7218 16C17.9479 16 18.1718 16.0446 18.3806 16.1312C18.5894 16.2179 18.779 16.3449 18.9387 16.5049L28.0343 25.604L37.1299 16.5049C37.2897 16.3451 37.4795 16.2184 37.6883 16.1319C37.897 16.0454 38.1208 16.0009 38.3468 16.0009C38.5728 16.0009 38.7966 16.0454 39.0054 16.1319C39.2142 16.2184 39.4039 16.3451 39.5637 16.5049C39.7235 16.6647 39.8503 16.8545 39.9367 17.0633C40.0232 17.272 40.0677 17.4958 40.0677 17.7218C40.0677 17.9478 40.0232 18.1716 39.9367 18.3804C39.8503 18.5892 39.7235 18.7789 39.5637 18.9387L30.4646 28.0343L39.5637 37.1299C39.7235 37.2897 39.8503 37.4795 39.9367 37.6883C40.0232 37.897 40.0677 38.1208 40.0677 38.3468C40.0677 38.5728 40.0232 38.7966 39.9367 39.0054C39.8503 39.2142 39.7235 39.4039 39.5637 39.5637C39.4039 39.7235 39.2142 39.8503 39.0054 39.9367C38.7966 40.0232 38.5728 40.0677 38.3468 40.0677C38.1208 40.0677 37.897 40.0232 37.6883 39.9367C37.4795 39.8503 37.2897 39.7235 37.1299 39.5637L28.0343 30.4646L18.9387 39.5637C18.7789 39.7235 18.5892 39.8503 18.3804 39.9367C18.1716 40.0232 17.9478 40.0677 17.7218 40.0677C17.4958 40.0677 17.272 40.0232 17.0633 39.9367C16.8545 39.8503 16.6647 39.7235 16.5049 39.5637C16.3451 39.4039 16.2184 39.2142 16.1319 39.0054C16.0454 38.7966 16.0009 38.5728 16.0009 38.3468C16.0009 38.1208 16.0454 37.897 16.1319 37.6883C16.2184 37.4795 16.3451 37.2897 16.5049 37.1299L25.604 28.0343L16.5049 18.9387C16.3449 18.779 16.2179 18.5894 16.1312 18.3806C16.0446 18.1718 16 17.9479 16 17.7218C16 17.4957 16.0446 17.2719 16.1312 17.0631C16.2179 16.8543 16.3449 16.6646 16.5049 16.5049Z" fill="black"/>
</svg>
