<svg width="499" height="873" viewBox="0 0 499 873" fill="none" xmlns="http://www.w3.org/2000/svg">
<circle cx="44" cy="383" r="447.5" stroke="#BCBDED" stroke-opacity="0.5"/>
<g filter="url(#filter0_d_1960_574)">
<rect x="134" y="788" width="60" height="60" rx="30" fill="white"/>
</g>
<path d="M152 826H176V828.667H152V826ZM176.679 813.369C176.499 812.829 176.112 812.383 175.603 812.128C175.094 811.873 174.504 811.831 173.964 812.011L168 814L157.333 810L154.667 811.333L162.667 816.667L157.333 819.333L152 816.667L150.667 818L156 823.333L175.396 816.06C175.916 815.865 176.341 815.475 176.58 814.973C176.819 814.472 176.855 813.897 176.679 813.369Z" fill="#2C2D5B"/>
<g filter="url(#filter1_d_1960_574)">
<rect x="414" y="157" width="60" height="60" rx="30" fill="white"/>
</g>
<path d="M429 181H442L443 183H430L429 181ZM430.333 185H443.333L444.333 187H431.333L430.333 185ZM452 195.667C453.107 195.667 454 194.773 454 193.667C454 192.56 453.107 191.667 452 191.667C450.893 191.667 450 192.56 450 193.667C450 194.773 450.893 195.667 452 195.667ZM454 183.667H450.667V187H456.613L454 183.667ZM438.667 195.667C439.773 195.667 440.667 194.773 440.667 193.667C440.667 192.56 439.773 191.667 438.667 191.667C437.56 191.667 436.667 192.56 436.667 193.667C436.667 194.773 437.56 195.667 438.667 195.667ZM454.667 181.667L458.667 187V193.667H456C456 195.88 454.213 197.667 452 197.667C449.787 197.667 448 195.88 448 193.667H442.667C442.667 195.88 440.867 197.667 438.667 197.667C436.453 197.667 434.667 195.88 434.667 193.667H432V189H434.667V191H435.68C436.413 190.187 437.48 189.667 438.667 189.667C439.853 189.667 440.92 190.187 441.653 191H448V179H432C432 177.52 433.187 176.333 434.667 176.333H450.667V181.667H454.667Z" fill="#2C2D5B"/>
<g filter="url(#filter2_d_1960_574)">
<rect x="372" y="627" width="60" height="60" rx="30" fill="white"/>
</g>
<path d="M390 668.667V651.333L402 646L414 651.333V668.667" stroke="#2C2D5B" stroke-width="2" stroke-linecap="round" stroke-linejoin="round"/>
<path d="M403.333 658H408.667V668.667H395.333V660.667H403.333" stroke="#2C2D5B" stroke-width="2" stroke-linecap="round" stroke-linejoin="round"/>
<path d="M403.333 668.667V656.667C403.333 656.313 403.193 655.974 402.943 655.724C402.693 655.474 402.354 655.333 402 655.333H399.333C398.98 655.333 398.641 655.474 398.391 655.724C398.14 655.974 398 656.313 398 656.667V660.667" stroke="#2C2D5B" stroke-width="2" stroke-linecap="round" stroke-linejoin="round"/>
<defs>
<filter id="filter0_d_1960_574" x="109" y="763" width="110" height="110" filterUnits="userSpaceOnUse" color-interpolation-filters="sRGB">
<feFlood flood-opacity="0" result="BackgroundImageFix"/>
<feColorMatrix in="SourceAlpha" type="matrix" values="0 0 0 0 0 0 0 0 0 0 0 0 0 0 0 0 0 0 127 0" result="hardAlpha"/>
<feOffset/>
<feGaussianBlur stdDeviation="12.5"/>
<feComposite in2="hardAlpha" operator="out"/>
<feColorMatrix type="matrix" values="0 0 0 0 0.592 0 0 0 0 0.592 0 0 0 0 0.592 0 0 0 0.25 0"/>
<feBlend mode="normal" in2="BackgroundImageFix" result="effect1_dropShadow_1960_574"/>
<feBlend mode="normal" in="SourceGraphic" in2="effect1_dropShadow_1960_574" result="shape"/>
</filter>
<filter id="filter1_d_1960_574" x="389" y="132" width="110" height="110" filterUnits="userSpaceOnUse" color-interpolation-filters="sRGB">
<feFlood flood-opacity="0" result="BackgroundImageFix"/>
<feColorMatrix in="SourceAlpha" type="matrix" values="0 0 0 0 0 0 0 0 0 0 0 0 0 0 0 0 0 0 127 0" result="hardAlpha"/>
<feOffset/>
<feGaussianBlur stdDeviation="12.5"/>
<feComposite in2="hardAlpha" operator="out"/>
<feColorMatrix type="matrix" values="0 0 0 0 0.592 0 0 0 0 0.592 0 0 0 0 0.592 0 0 0 0.25 0"/>
<feBlend mode="normal" in2="BackgroundImageFix" result="effect1_dropShadow_1960_574"/>
<feBlend mode="normal" in="SourceGraphic" in2="effect1_dropShadow_1960_574" result="shape"/>
</filter>
<filter id="filter2_d_1960_574" x="347" y="602" width="110" height="110" filterUnits="userSpaceOnUse" color-interpolation-filters="sRGB">
<feFlood flood-opacity="0" result="BackgroundImageFix"/>
<feColorMatrix in="SourceAlpha" type="matrix" values="0 0 0 0 0 0 0 0 0 0 0 0 0 0 0 0 0 0 127 0" result="hardAlpha"/>
<feOffset/>
<feGaussianBlur stdDeviation="12.5"/>
<feComposite in2="hardAlpha" operator="out"/>
<feColorMatrix type="matrix" values="0 0 0 0 0.592 0 0 0 0 0.592 0 0 0 0 0.592 0 0 0 0.25 0"/>
<feBlend mode="normal" in2="BackgroundImageFix" result="effect1_dropShadow_1960_574"/>
<feBlend mode="normal" in="SourceGraphic" in2="effect1_dropShadow_1960_574" result="shape"/>
</filter>
</defs>
</svg>
