<svg width="111" height="110" viewBox="0 0 111 110" fill="none" xmlns="http://www.w3.org/2000/svg">
<g filter="url(#filter0_d_1960_751)">
<rect x="25.5" y="25" width="60" height="60" rx="30" fill="white"/>
</g>
<path d="M53.1437 63.7821V60.7152C53.1437 59.9381 53.7757 59.3067 54.5584 59.3018H57.4326C58.2189 59.3018 58.8563 59.9346 58.8563 60.7152V63.7732C58.8562 64.4473 59.404 64.9951 60.0829 65H62.0438C62.9596 65.0023 63.8388 64.6428 64.4872 64.0007C65.1356 63.3586 65.5 62.4868 65.5 61.5775V52.8658C65.5 52.1314 65.1721 51.4347 64.6046 50.9635L57.943 45.6743C56.7785 44.7491 55.1154 44.779 53.9854 45.7454L47.467 50.9635C46.8727 51.4208 46.5176 52.1196 46.5 52.8658V61.5686C46.5 63.4637 48.0474 65 49.9562 65H51.8723C52.1992 65.0023 52.5135 64.8751 52.7455 64.6464C52.9775 64.4178 53.1079 64.1067 53.1079 63.7821H53.1437Z" fill="#200E32"/>
<defs>
<filter id="filter0_d_1960_751" x="0.5" y="0" width="110" height="110" filterUnits="userSpaceOnUse" color-interpolation-filters="sRGB">
<feFlood flood-opacity="0" result="BackgroundImageFix"/>
<feColorMatrix in="SourceAlpha" type="matrix" values="0 0 0 0 0 0 0 0 0 0 0 0 0 0 0 0 0 0 127 0" result="hardAlpha"/>
<feOffset/>
<feGaussianBlur stdDeviation="12.5"/>
<feComposite in2="hardAlpha" operator="out"/>
<feColorMatrix type="matrix" values="0 0 0 0 0.592 0 0 0 0 0.592 0 0 0 0 0.592 0 0 0 0.25 0"/>
<feBlend mode="normal" in2="BackgroundImageFix" result="effect1_dropShadow_1960_751"/>
<feBlend mode="normal" in="SourceGraphic" in2="effect1_dropShadow_1960_751" result="shape"/>
</filter>
</defs>
</svg>
