<svg width="111" height="110" viewBox="0 0 111 110" fill="none" xmlns="http://www.w3.org/2000/svg">
<g filter="url(#filter0_d_1960_761)">
<rect x="25.5" y="25" width="60" height="60" rx="30" fill="white"/>
</g>
<path fill-rule="evenodd" clip-rule="evenodd" d="M47.5 53.3178C47.5 48.7179 51.3439 45 55.9934 45C60.6561 45 64.5 48.7179 64.5 53.3178C64.5 55.6357 63.657 57.7876 62.2695 59.6116C60.7388 61.6235 58.8522 63.3765 56.7285 64.7524C56.2425 65.0704 55.8039 65.0944 55.2704 64.7524C53.1347 63.3765 51.2481 61.6235 49.7305 59.6116C48.342 57.7876 47.5 55.6357 47.5 53.3178ZM53.1942 53.5768C53.1942 55.1177 54.4517 56.3297 55.9934 56.3297C57.5362 56.3297 58.8058 55.1177 58.8058 53.5768C58.8058 52.0478 57.5362 50.7768 55.9934 50.7768C54.4517 50.7768 53.1942 52.0478 53.1942 53.5768Z" fill="#200E32"/>
<defs>
<filter id="filter0_d_1960_761" x="0.5" y="0" width="110" height="110" filterUnits="userSpaceOnUse" color-interpolation-filters="sRGB">
<feFlood flood-opacity="0" result="BackgroundImageFix"/>
<feColorMatrix in="SourceAlpha" type="matrix" values="0 0 0 0 0 0 0 0 0 0 0 0 0 0 0 0 0 0 127 0" result="hardAlpha"/>
<feOffset/>
<feGaussianBlur stdDeviation="12.5"/>
<feComposite in2="hardAlpha" operator="out"/>
<feColorMatrix type="matrix" values="0 0 0 0 0.592 0 0 0 0 0.592 0 0 0 0 0.592 0 0 0 0.25 0"/>
<feBlend mode="normal" in2="BackgroundImageFix" result="effect1_dropShadow_1960_761"/>
<feBlend mode="normal" in="SourceGraphic" in2="effect1_dropShadow_1960_761" result="shape"/>
</filter>
</defs>
</svg>
