<svg width="111" height="111" viewBox="0 0 111 111" fill="none" xmlns="http://www.w3.org/2000/svg">
<g filter="url(#filter0_d_1960_743)">
<rect x="25.5" y="25.5" width="60" height="60" rx="30" fill="white"/>
</g>
<path d="M40.5 49.4999H53.5L54.5 51.4999H41.5L40.5 49.4999ZM41.8333 53.4999H54.8333L55.8333 55.4999H42.8333L41.8333 53.4999ZM63.5 64.1666C64.6067 64.1666 65.5 63.2733 65.5 62.1666C65.5 61.0599 64.6067 60.1666 63.5 60.1666C62.3933 60.1666 61.5 61.0599 61.5 62.1666C61.5 63.2733 62.3933 64.1666 63.5 64.1666ZM65.5 52.1666H62.1667V55.4999H68.1133L65.5 52.1666ZM50.1667 64.1666C51.2733 64.1666 52.1667 63.2733 52.1667 62.1666C52.1667 61.0599 51.2733 60.1666 50.1667 60.1666C49.06 60.1666 48.1667 61.0599 48.1667 62.1666C48.1667 63.2733 49.06 64.1666 50.1667 64.1666ZM66.1667 50.1666L70.1667 55.4999V62.1666H67.5C67.5 64.3799 65.7133 66.1666 63.5 66.1666C61.2867 66.1666 59.5 64.3799 59.5 62.1666H54.1667C54.1667 64.3799 52.3667 66.1666 50.1667 66.1666C47.9533 66.1666 46.1667 64.3799 46.1667 62.1666H43.5V57.4999H46.1667V59.4999H47.18C47.9133 58.6866 48.98 58.1666 50.1667 58.1666C51.3533 58.1666 52.42 58.6866 53.1533 59.4999H59.5V47.4999H43.5C43.5 46.0199 44.6867 44.8333 46.1667 44.8333H62.1667V50.1666H66.1667Z" fill="#2C2D5B"/>
<defs>
<filter id="filter0_d_1960_743" x="0.5" y="0.5" width="110" height="110" filterUnits="userSpaceOnUse" color-interpolation-filters="sRGB">
<feFlood flood-opacity="0" result="BackgroundImageFix"/>
<feColorMatrix in="SourceAlpha" type="matrix" values="0 0 0 0 0 0 0 0 0 0 0 0 0 0 0 0 0 0 127 0" result="hardAlpha"/>
<feOffset/>
<feGaussianBlur stdDeviation="12.5"/>
<feComposite in2="hardAlpha" operator="out"/>
<feColorMatrix type="matrix" values="0 0 0 0 0.592 0 0 0 0 0.592 0 0 0 0 0.592 0 0 0 0.25 0"/>
<feBlend mode="normal" in2="BackgroundImageFix" result="effect1_dropShadow_1960_743"/>
<feBlend mode="normal" in="SourceGraphic" in2="effect1_dropShadow_1960_743" result="shape"/>
</filter>
</defs>
</svg>
