<svg width="655" height="194" viewBox="0 0 655 194" fill="none" xmlns="http://www.w3.org/2000/svg">
<path d="M0.738403 0.203125L2.03264 6.1139L6.5044 2.03766L0.738403 0.203125ZM295.646 45.7362L295.415 45.2658L295.646 45.7362ZM651.27 193.719L654.01 188.324L647.968 188.648L651.27 193.719ZM3.53395 4.04769C3.6728 4.19523 3.81241 4.343 3.95279 4.491L4.71318 3.76978C4.57375 3.62277 4.43508 3.47599 4.29717 3.32945L3.53395 4.04769ZM11.5423 11.9994C14.052 14.338 16.732 16.7075 19.5769 19.0881L20.2495 18.2844C17.4186 15.9155 14.7525 13.5583 12.2568 11.2327L11.5423 11.9994ZM27.942 25.7463C30.7169 27.8486 33.6162 29.9453 36.6362 32.0229L37.2302 31.1595C34.2234 29.0909 31.3371 27.0036 28.5749 24.9109L27.942 25.7463ZM45.5605 37.8768C48.5272 39.7314 51.5917 41.5593 54.7514 43.3501L55.2681 42.4383C52.1217 40.655 49.0701 38.8348 46.1161 36.9881L45.5605 37.8768ZM64.1789 48.4304C67.3091 50.0321 70.5205 51.5925 73.8106 53.103L74.2479 52.1505C70.9715 50.6463 67.7735 49.0924 64.6562 47.4974L64.1789 48.4304ZM83.6124 57.353C86.8711 58.6842 90.1984 59.9633 93.5924 61.183L93.9468 60.1967C90.5672 58.9822 87.2538 57.7085 84.0087 56.3828L83.6124 57.353ZM103.731 64.5817C107.099 65.6301 110.525 66.6178 114.009 67.5384L114.277 66.5251C110.808 65.6085 107.396 64.625 104.043 63.581L103.731 64.5817ZM124.408 70.0436C127.857 70.7948 131.357 71.4786 134.906 72.0892L135.084 71.0564C131.55 70.4484 128.065 69.7676 124.631 69.0196L124.408 70.0436ZM145.485 73.6687C148.986 74.1124 152.533 74.4837 156.122 74.7775L156.208 73.733C152.634 73.4404 149.103 73.0708 145.616 72.629L145.485 73.6687ZM166.798 75.4135C170.324 75.5453 173.889 75.6012 177.491 75.5768L177.484 74.5288C173.897 74.5531 170.348 74.4974 166.837 74.3662L166.798 75.4135ZM188.182 75.27C191.705 75.0918 195.262 74.8357 198.851 74.498L198.753 73.4546C195.179 73.7909 191.637 74.0458 188.129 74.2233L188.182 75.27ZM209.481 73.2681C212.978 72.7879 216.504 72.2293 220.057 71.589L219.871 70.5576C216.332 71.1953 212.821 71.7516 209.339 72.2298L209.481 73.2681ZM230.544 69.4761C233.976 68.7115 237.432 67.8698 240.911 66.9482L240.643 65.9351C237.177 66.8532 233.734 67.6916 230.316 68.4531L230.544 69.4761ZM251.179 64.014C254.546 62.9815 257.933 61.8733 261.34 60.687L260.995 59.6972C257.601 60.8793 254.226 61.9833 250.872 63.012L251.179 64.014ZM271.392 56.9798C274.675 55.7013 277.975 54.3496 281.292 52.9225L280.878 51.9598C277.572 53.3821 274.283 54.7292 271.012 56.0032L271.392 56.9798ZM291.007 48.5474C292.627 47.7854 294.25 47.0052 295.877 46.2066L295.415 45.2658C293.793 46.0618 292.175 46.8395 290.561 47.5991L291.007 48.5474ZM295.877 46.2066C297.502 45.4092 299.126 44.6286 300.75 43.8646L300.304 42.9163C298.675 43.6827 297.045 44.4658 295.415 45.2658L295.877 46.2066ZM310.486 39.48C313.8 38.0536 317.111 36.6955 320.418 35.4047L320.037 34.4284C316.719 35.7236 313.397 37.0862 310.072 38.5173L310.486 39.48ZM330.415 31.7008C333.817 30.5074 337.214 29.3841 340.603 28.3295L340.292 27.3288C336.89 28.3871 333.482 29.5143 330.068 30.7118L330.415 31.7008ZM350.877 25.3365C354.334 24.3974 357.782 23.5291 361.221 22.7299L360.984 21.709C357.533 22.5112 354.072 23.3827 350.603 24.3251L350.877 25.3365ZM371.723 20.4964C375.246 19.8164 378.758 19.2083 382.256 18.6705L382.097 17.6346C378.585 18.1745 375.061 18.7848 371.524 19.4673L371.723 20.4964ZM392.844 17.2508C396.419 16.8416 399.979 16.5052 403.521 16.2398L403.443 15.1947C399.887 15.4611 396.313 15.7989 392.725 16.2096L392.844 17.2508ZM414.197 15.651C417.776 15.5244 421.336 15.4699 424.876 15.4855L424.881 14.4375C421.327 14.4218 417.753 14.4765 414.16 14.6036L414.197 15.651ZM435.596 15.7483C439.178 15.9083 442.738 16.14 446.272 16.4414L446.361 15.3971C442.813 15.0946 439.239 14.862 435.642 14.7013L435.596 15.7483ZM456.893 17.5643C460.454 18.0142 463.988 18.5348 467.491 19.1239L467.665 18.0904C464.148 17.4989 460.6 16.9762 457.024 16.5245L456.893 17.5643ZM478.011 21.1164C481.517 21.8554 484.989 22.6632 488.426 23.5376L488.684 22.5219C485.233 21.644 481.747 20.8329 478.227 20.0909L478.011 21.1164ZM498.723 26.386C502.162 27.415 505.563 28.5111 508.923 29.6719L509.265 28.6813C505.892 27.5158 502.477 26.4152 499.023 25.3819L498.723 26.386ZM518.964 33.3798C522.298 34.6917 525.587 36.068 528.829 37.5061L529.254 36.5481C525.998 35.104 522.696 33.722 519.348 32.4046L518.964 33.3798ZM538.5 42.0464C541.715 43.6416 544.879 45.2986 547.99 47.0147L548.496 46.097C545.372 44.3736 542.195 42.7095 538.965 41.1076L538.5 42.0464ZM557.247 52.3923C560.306 54.2619 563.307 56.1899 566.247 58.1735L566.834 57.3047C563.881 55.3123 560.866 53.3758 557.793 51.498L557.247 52.3923ZM574.97 64.3534C577.844 66.491 580.651 68.6834 583.39 70.9274L584.054 70.1167C581.303 67.8623 578.482 65.6598 575.595 63.5124L574.97 64.3534ZM591.508 77.9129C594.171 80.32 596.759 82.7781 599.268 85.2837L600.009 84.5421C597.487 82.0241 594.887 79.5541 592.21 77.1353L591.508 77.9129ZM606.641 93.0334C609.046 95.6955 611.365 98.4039 613.594 101.155L614.409 100.495C612.167 97.7292 609.836 95.0067 607.419 92.3309L606.641 93.0334ZM620.092 109.639C622.192 112.545 624.194 115.492 626.096 118.475L626.98 117.912C625.067 114.911 623.053 111.947 620.942 109.025L620.092 109.639ZM631.566 127.651C633.307 130.788 634.94 133.959 636.459 137.161L637.406 136.711C635.877 133.489 634.234 130.298 632.482 127.142L631.566 127.651ZM640.72 146.965C642.036 150.295 643.23 153.653 644.298 157.033L645.297 156.717C644.222 153.314 643.019 149.933 641.695 146.58L640.72 146.965ZM647.143 167.328C647.966 170.804 648.656 174.297 649.207 177.805L650.243 177.642C649.687 174.108 648.992 170.588 648.163 167.087L647.143 167.328ZM650.447 188.407C650.463 188.62 650.479 188.834 650.495 189.047L651.54 188.972C651.524 188.757 651.509 188.542 651.492 188.327L650.447 188.407Z" fill="#DE6600"/>
</svg>
